{
  "accessors": [
    {
      "bufferView": 2,
      "componentType": 5126,
      "count": 1330,
      "max": [
        0.32906970381736755,
        0.18269768357276917,
        0.1523142009973526
      ],
      "min": [
        -0.3258812427520752,
        0.13425253331661224,
        -0.18156078457832336
      ],
      "type": "VEC3"
    },
    {
      "bufferView": 2,
      "byteOffset": 15960,
      "componentType": 5126,
      "count": 1330,
      "max": [
        1.0,
        0.9999988079071045,
        1.0
      ],
      "min": [
        -0.999656617641449,
        -0.9996236562728882,
        -0.9996556639671326
      ],
      "type": "VEC3"
    },
    {
      "bufferView": 1,
      "componentType": 5126,
      "count": 1330,
      "max": [
        0.6279507875442505,
        1.0
      ],
      "min": [
        0.027202092111110687,
        0.4705203175544739
      ],
      "type": "VEC2"
    },
    {
      "bufferView": 0,
      "componentType": 5125,
      "count": 3420,
      "type": "SCALAR"
    },
    {
      "bufferView": 2,
      "byteOffset": 31920,
      "componentType": 5126,
      "count": 642,
      "max": [
        0.07438264042139053,
        0.0471627302467823,
        1.0299170017242432
      ],
      "min": [
        -0.07438264042139053,
        -0.0471627302467823,
        -1.1086905002593994
      ],
      "type": "VEC3"
    },
    {
      "bufferView": 2,
      "byteOffset": 39624,
      "componentType": 5126,
      "count": 642,
      "max": [
        0.9999539256095886,
        1.0,
        1.0
      ],
      "min": [
        -1.0,
        -1.0,
        -1.0
      ],
      "type": "VEC3"
    },
    {
      "bufferView": 1,
      "byteOffset": 10640,
      "componentType": 5126,
      "count": 642,
      "max": [
        0.933448314666748,
        0.5279845595359802
      ],
      "min": [
        0.6981695890426636,
        0.26913878321647644
      ],
      "type": "VEC2"
    },
    {
      "bufferView": 0,
      "byteOffset": 13680,
      "componentType": 5125,
      "count": 2508,
      "type": "SCALAR"
    },
    {
      "bufferView": 2,
      "byteOffset": 47328,
      "componentType": 5126,
      "count": 744,
      "max": [
        0.040810614824295044,
        0.040810614824295044,
        0.12626542150974274
      ],
      "min": [
        -0.040810614824295044,
        -0.040810614824295044,
        -0.050995465368032455
      ],
      "type": "VEC3"
    },
    {
      "bufferView": 2,
      "byteOffset": 56256,
      "componentType": 5126,
      "count": 744,
      "max": [
        1.0,
        1.0,
        1.0
      ],
      "min": [
        -1.0,
        -1.0,
        -0.9994009137153625
      ],
      "type": "VEC3"
    },
    {
      "bufferView": 1,
      "byteOffset": 15776,
      "componentType": 5126,
      "count": 744,
      "max": [
        1.0,
        1.0000003576278687
      ],
      "min": [
        0.0,
        0.015325646847486496
      ],
      "type": "VEC2"
    },
    {
      "bufferView": 0,
      "byteOffset": 23712,
      "componentType": 5125,
      "count": 2670,
      "type": "SCALAR"
    },
    {
      "bufferView": 2,
      "byteOffset": 65184,
      "componentType": 5126,
      "count": 224,
      "max": [
        0.0319305919110775,
        0.033473193645477295,
        0.007009216584265232
      ],
      "min": [
        -0.0319305844604969,
        -0.027280651032924652,
        -0.007009216584265232
      ],
      "type": "VEC3"
    },
    {
      "bufferView": 2,
      "byteOffset": 67872,
      "componentType": 5126,
      "count": 224,
      "max": [
        0.9991613626480103,
        0.9539778232574463,
        0.998778760433197
      ],
      "min": [
        -0.9991613626480103,
        -0.998989462852478,
        -0.998778760433197
      ],
      "type": "VEC3"
    },
    {
      "bufferView": 1,
      "byteOffset": 21728,
      "componentType": 5126,
      "count": 224,
      "max": [
        1.0,
        1.0
      ],
      "min": [
        -0.0005298602627590299,
        0.058703456073999405
      ],
      "type": "VEC2"
    },
    {
      "bufferView": 0,
      "byteOffset": 34392,
      "componentType": 5125,
      "count": 708,
      "type": "SCALAR"
    },
    {
      "bufferView": 2,
      "byteOffset": 70560,
      "componentType": 5126,
      "count": 192,
      "max": [
        1.0,
        1.0,
        1.0
      ],
      "min": [
        -1.0,
        -1.0,
        -1.0
      ],
      "type": "VEC3"
    },
    {
      "bufferView": 2,
      "byteOffset": 72864,
      "componentType": 5126,
      "count": 192,
      "max": [
        0.9951847195625305,
        0.9951848387718201,
        1.0
      ],
      "min": [
        -0.9951847195625305,
        -0.9951848387718201,
        -1.0
      ],
      "type": "VEC3"
    },
    {
      "bufferView": 1,
      "byteOffset": 23520,
      "componentType": 5126,
      "count": 192,
      "max": [
        1.0,
        1.0
      ],
      "min": [
        0.0,
        0.01000000536441803
      ],
      "type": "VEC2"
    },
    {
      "bufferView": 0,
      "byteOffset": 37224,
      "componentType": 5125,
      "count": 372,
      "type": "SCALAR"
    },
    {
      "bufferView": 2,
      "byteOffset": 75168,
      "componentType": 5126,
      "count": 450,
      "max": [
        0.038663264364004135,
        0.038663264364004135,
        0.004453687462955713
      ],
      "min": [
        -0.038663264364004135,
        -0.038663264364004135,
        -0.004453687462955713
      ],
      "type": "VEC3"
    },
    {
      "bufferView": 2,
      "byteOffset": 80568,
      "componentType": 5126,
      "count": 450,
      "max": [
        0.9996541738510132,
        0.999654233455658,
        0.9996158480644226
      ],
      "min": [
        -0.9996541738510132,
        -0.999654233455658,
        -0.9996158480644226
      ],
      "type": "VEC3"
    },
    {
      "bufferView": 1,
      "byteOffset": 25056,
      "componentType": 5126,
      "count": 450,
      "max": [
        1.0,
        1.0
      ],
      "min": [
        0.0,
        0.01269461214542389
      ],
      "type": "VEC2"
    },
    {
      "bufferView": 0,
      "byteOffset": 38712,
      "componentType": 5125,
      "count": 1524,
      "type": "SCALAR"
    },
    {
      "bufferView": 2,
      "byteOffset": 85968,
      "componentType": 5126,
      "count": 224,
      "max": [
        0.0319305919110775,
        0.033473193645477295,
        0.007009216584265232
      ],
      "min": [
        -0.0319305844604969,
        -0.027280651032924652,
        -0.007009216584265232
      ],
      "type": "VEC3"
    },
    {
      "bufferView": 2,
      "byteOffset": 88656,
      "componentType": 5126,
      "count": 224,
      "max": [
        0.9991613626480103,
        0.9539778232574463,
        0.998778760433197
      ],
      "min": [
        -0.9991613626480103,
        -0.998989462852478,
        -0.998778760433197
      ],
      "type": "VEC3"
    },
    {
      "bufferView": 1,
      "byteOffset": 28656,
      "componentType": 5126,
      "count": 224,
      "max": [
        1.0,
        1.0
      ],
      "min": [
        -0.0005298602627590299,
        0.058703456073999405
      ],
      "type": "VEC2"
    },
    {
      "bufferView": 0,
      "byteOffset": 44808,
      "componentType": 5125,
      "count": 708,
      "type": "SCALAR"
    },
    {
      "bufferView": 2,
      "byteOffset": 91344,
      "componentType": 5126,
      "count": 192,
      "max": [
        1.0,
        1.0,
        1.0
      ],
      "min": [
        -1.0,
        -1.0,
        -1.0
      ],
      "type": "VEC3"
    },
    {
      "bufferView": 2,
      "byteOffset": 93648,
      "componentType": 5126,
      "count": 192,
      "max": [
        0.9951847195625305,
        0.9951848387718201,
        1.0
      ],
      "min": [
        -0.9951847195625305,
        -0.9951848387718201,
        -1.0
      ],
      "type": "VEC3"
    },
    {
      "bufferView": 1,
      "byteOffset": 30448,
      "componentType": 5126,
      "count": 192,
      "max": [
        1.0,
        1.0
      ],
      "min": [
        0.0,
        0.01000000536441803
      ],
      "type": "VEC2"
    },
    {
      "bufferView": 0,
      "byteOffset": 47640,
      "componentType": 5125,
      "count": 372,
      "type": "SCALAR"
    },
    {
      "bufferView": 2,
      "byteOffset": 95952,
      "componentType": 5126,
      "count": 450,
      "max": [
        0.038663264364004135,
        0.038663264364004135,
        0.004453687462955713
      ],
      "min": [
        -0.038663264364004135,
        -0.038663264364004135,
        -0.004453687462955713
      ],
      "type": "VEC3"
    },
    {
      "bufferView": 2,
      "byteOffset": 101352,
      "componentType": 5126,
      "count": 450,
      "max": [
        0.9996541738510132,
        0.999654233455658,
        0.9996158480644226
      ],
      "min": [
        -0.9996541738510132,
        -0.999654233455658,
        -0.9996158480644226
      ],
      "type": "VEC3"
    },
    {
      "bufferView": 1,
      "byteOffset": 31984,
      "componentType": 5126,
      "count": 450,
      "max": [
        1.0,
        1.0
      ],
      "min": [
        0.0,
        0.01269461214542389
      ],
      "type": "VEC2"
    },
    {
      "bufferView": 0,
      "byteOffset": 49128,
      "componentType": 5125,
      "count": 1524,
      "type": "SCALAR"
    },
    {
      "bufferView": 2,
      "byteOffset": 106752,
      "componentType": 5126,
      "count": 744,
      "max": [
        0.040810614824295044,
        0.040810614824295044,
        0.12626542150974274
      ],
      "min": [
        -0.040810614824295044,
        -0.040810614824295044,
        -0.050995465368032455
      ],
      "type": "VEC3"
    },
    {
      "bufferView": 2,
      "byteOffset": 115680,
      "componentType": 5126,
      "count": 744,
      "max": [
        1.0,
        1.0,
        1.0
      ],
      "min": [
        -1.0,
        -1.0,
        -0.9994009137153625
      ],
      "type": "VEC3"
    },
    {
      "bufferView": 1,
      "byteOffset": 35584,
      "componentType": 5126,
      "count": 744,
      "max": [
        1.0,
        1.0000003576278687
      ],
      "min": [
        0.0,
        0.015325646847486496
      ],
      "type": "VEC2"
    },
    {
      "bufferView": 0,
      "byteOffset": 55224,
      "componentType": 5125,
      "count": 2670,
      "type": "SCALAR"
    },
    {
      "bufferView": 2,
      "byteOffset": 124608,
      "componentType": 5126,
      "count": 646,
      "max": [
        0.07438264042139053,
        0.0471627302467823,
        1.0299170017242432
      ],
      "min": [
        -0.07438264042139053,
        -0.0471627302467823,
        -1.1086905002593994
      ],
      "type": "VEC3"
    },
    {
      "bufferView": 2,
      "byteOffset": 132360,
      "componentType": 5126,
      "count": 646,
      "max": [
        0.9999539256095886,
        1.0,
        1.0
      ],
      "min": [
        -1.0,
        -1.0,
        -1.0
      ],
      "type": "VEC3"
    },
    {
      "bufferView": 1,
      "byteOffset": 41536,
      "componentType": 5126,
      "count": 646,
      "max": [
        0.9271793961524963,
        0.5139442086219788
      ],
      "min": [
        0.7441880106925964,
        0.3126230835914612
      ],
      "type": "VEC2"
    },
    {
      "bufferView": 0,
      "byteOffset": 65904,
      "componentType": 5125,
      "count": 2508,
      "type": "SCALAR"
    },
    {
      "bufferView": 2,
      "byteOffset": 140112,
      "componentType": 5126,
      "count": 29022,
      "max": [
        0.8924968242645264,
        0.19801707565784454,
        0.642748236656189
      ],
      "min": [
        -0.8924968242645264,
        -0.19801710546016693,
        -0.7402247786521912
      ],
      "type": "VEC3"
    },
    {
      "bufferView": 2,
      "byteOffset": 488376,
      "componentType": 5126,
      "count": 29022,
      "max": [
        1.0,
        1.0,
        1.0
      ],
      "min": [
        -1.0,
        -1.0,
        -1.0
      ],
      "type": "VEC3"
    },
    {
      "bufferView": 1,
      "byteOffset": 46704,
      "componentType": 5126,
      "count": 29022,
      "max": [
        1.2269699573516846,
        1.0483933687210083
      ],
      "min": [
        -0.12665924429893494,
        -0.026693910360336304
      ],
      "type": "VEC2"
    },
    {
      "bufferView": 0,
      "byteOffset": 75936,
      "componentType": 5125,
      "count": 67638,
      "type": "SCALAR"
    },
    {
      "bufferView": 2,
      "byteOffset": 836640,
      "componentType": 5126,
      "count": 735,
      "max": [
        0.3271772563457489,
        0.18127085268497467,
        0.14472338557243347
      ],
      "min": [
        -0.4859922230243683,
        -0.003037095069885254,
        -0.5523293614387512
      ],
      "type": "VEC3"
    },
    {
      "bufferView": 2,
      "byteOffset": 845460,
      "componentType": 5126,
      "count": 735,
      "max": [
        0.9999205470085144,
        0.9996355175971985,
        0.9999204874038696
      ],
      "min": [
        -1.0,
        -0.2983907163143158,
        -0.9999204874038696
      ],
      "type": "VEC3"
    },
    {
      "bufferView": 1,
      "byteOffset": 278880,
      "componentType": 5126,
      "count": 735,
      "max": [
        0.8711256384849548,
        0.8941532373428345
      ],
      "min": [
        0.19494633376598358,
        0.8176007866859436
      ],
      "type": "VEC2"
    },
    {
      "bufferView": 0,
      "byteOffset": 346488,
      "componentType": 5125,
      "count": 2391,
      "type": "SCALAR"
    },
    {
      "bufferView": 2,
      "byteOffset": 854280,
      "componentType": 5126,
      "count": 2032,
      "max": [
        0.8854917287826538,
        0.19230087101459503,
        -0.7402245402336121
      ],
      "min": [
        -0.8854917287826538,
        -0.19230209290981293,
        -0.8448631167411804
      ],
      "type": "VEC3"
    },
    {
      "bufferView": 2,
      "byteOffset": 878664,
      "componentType": 5126,
      "count": 2032,
      "max": [
        0.996536910533905,
        1.0,
        0.9368326663970947
      ],
      "min": [
        -0.996536910533905,
        -1.0,
        -1.0
      ],
      "type": "VEC3"
    },
    {
      "bufferView": 1,
      "byteOffset": 284760,
      "componentType": 5126,
      "count": 2032,
      "max": [
        0.9191303849220276,
        0.909011721611023
      ],
      "min": [
        0.027218051254749298,
        0.19906318187713623
      ],
      "type": "VEC2"
    },
    {
      "bufferView": 0,
      "byteOffset": 356052,
      "componentType": 5125,
      "count": 5226,
      "type": "SCALAR"
    },
    {
      "bufferView": 2,
      "byteOffset": 903048,
      "componentType": 5126,
      "count": 444,
      "max": [
        0.036502014845609665,
        0.03655562549829483,
        0.042529378086328506
      ],
      "min": [
        -0.036502014845609665,
        -0.036341335624456406,
        -0.042529378086328506
      ],
      "type": "VEC3"
    },
    {
      "bufferView": 2,
      "byteOffset": 908376,
      "componentType": 5126,
      "count": 444,
      "max": [
        0.9981874823570251,
        0.9996535778045654,
        0.999612033367157
      ],
      "min": [
        -0.9981874823570251,
        -0.9937936067581177,
        -0.999612033367157
      ],
      "type": "VEC3"
    },
    {
      "bufferView": 1,
      "byteOffset": 301016,
      "componentType": 5126,
      "count": 444,
      "max": [
        1.0,
        1.0
      ],
      "min": [
        -2.0116567611694336e-07,
        0.018313853070139885
      ],
      "type": "VEC2"
    },
    {
      "bufferView": 0,
      "byteOffset": 376956,
      "componentType": 5125,
      "count": 1380,
      "type": "SCALAR"
    },
    {
      "bufferView": 2,
      "byteOffset": 913704,
      "componentType": 5126,
      "count": 1395,
      "max": [
        0.3156774342060089,
        0.0681496411561966,
        -0.4252656400203705
      ],
      "min": [
        -0.24153147637844086,
        -0.018833810463547707,
        -0.578099250793457
      ],
      "type": "VEC3"
    },
    {
      "bufferView": 2,
      "byteOffset": 930444,
      "componentType": 5126,
      "count": 1395,
      "max": [
        1.0,
        1.0,
        0.9586823582649231
      ],
      "min": [
        -1.0,
        -1.0,
        -0.9586823582649231
      ],
      "type": "VEC3"
    },
    {
      "bufferView": 1,
      "byteOffset": 304568,
      "componentType": 5126,
      "count": 1395,
      "max": [
        1.0,
        1.0
      ],
      "min": [
        0.0,
        0.0
      ],
      "type": "VEC2"
    },
    {
      "bufferView": 0,
      "byteOffset": 382476,
      "componentType": 5125,
      "count": 2655,
      "type": "SCALAR"
    },
    {
      "bufferView": 2,
      "byteOffset": 947184,
      "componentType": 5126,
      "count": 3547,
      "max": [
        0.31699830293655396,
        0.10566054284572601,
        -0.4216518998146057
      ],
      "min": [
        -0.24433086812496185,
        -0.018833810463547707,
        -0.5812692046165466
      ],
      "type": "VEC3"
    },
    {
      "bufferView": 2,
      "byteOffset": 989748,
      "componentType": 5126,
      "count": 3547,
      "max": [
        1.0,
        1.0,
        1.0
      ],
      "min": [
        -1.0,
        -0.9996468424797058,
        -1.0
      ],
      "type": "VEC3"
    },
    {
      "bufferView": 1,
      "byteOffset": 315728,
      "componentType": 5126,
      "count": 3547,
      "max": [
        1.0,
        1.0
      ],
      "min": [
        0.0,
        0.0
      ],
      "type": "VEC2"
    },
    {
      "bufferView": 0,
      "byteOffset": 393096,
      "componentType": 5125,
      "count": 9873,
      "type": "SCALAR"
    },
    {
      "bufferView": 2,
      "byteOffset": 1032312,
      "componentType": 5126,
      "count": 296,
      "max": [
        0.9999997019767761,
        0.9999991059303284,
        9.009913444519043
      ],
      "min": [
        -0.9999990463256836,
        -0.9999990463256836,
        -1.0
      ],
      "type": "VEC3"
    },
    {
      "bufferView": 2,
      "byteOffset": 1035864,
      "componentType": 5126,
      "count": 296,
      "max": [
        0.9999979138374329,
        0.9999978542327881,
        -0.0020873392932116985
      ],
      "min": [
        -0.9999979138374329,
        -0.9999978542327881,
        -1.0
      ],
      "type": "VEC3"
    },
    {
      "bufferView": 1,
      "byteOffset": 344104,
      "componentType": 5126,
      "count": 296,
      "max": [
        1.0000001192092896,
        0.5
      ],
      "min": [
        0.0,
        0.0
      ],
      "type": "VEC2"
    },
    {
      "bufferView": 0,
      "byteOffset": 432588,
      "componentType": 5125,
      "count": 1440,
      "type": "SCALAR"
    },
    {
      "bufferView": 2,
      "byteOffset": 1039416,
      "componentType": 5126,
      "count": 726,
      "max": [
        0.33162611722946167,
        0.03837418928742409,
        -0.363802045583725
      ],
      "min": [
        -0.07556100934743881,
        -0.18809136748313904,
        -0.37527066469192505
      ],
      "type": "VEC3"
    },
    {
      "bufferView": 2,
      "byteOffset": 1048128,
      "componentType": 5126,
      "count": 726,
      "max": [
        0.9986565709114075,
        0.9986565113067627,
        0.9995222091674805
      ],
      "min": [
        -0.9986565709114075,
        -0.9997843503952026,
        -0.9995205402374268
      ],
      "type": "VEC3"
    },
    {
      "bufferView": 1,
      "byteOffset": 346472,
      "componentType": 5126,
      "count": 726,
      "max": [
        0.875,
        1.0
      ],
      "min": [
        0.125,
        0.0
      ],
      "type": "VEC2"
    },
    {
      "bufferView": 0,
      "byteOffset": 438348,
      "componentType": 5125,
      "count": 2304,
      "type": "SCALAR"
    },
    {
      "bufferView": 2,
      "byteOffset": 1056840,
      "componentType": 5126,
      "count": 3415,
      "max": [
        0.31173330545425415,
        0.0024922825396060944,
        -0.44628533720970154
      ],
      "min": [
        -0.23748956620693207,
        -0.022417880594730377,
        -0.5666841864585876
      ],
      "type": "VEC3"
    },
    {
      "bufferView": 2,
      "byteOffset": 1097820,
      "componentType": 5126,
      "count": 3415,
      "max": [
        1.0,
        1.0,
        1.0
      ],
      "min": [
        -1.0,
        -0.9990827441215515,
        -1.0
      ],
      "type": "VEC3"
    },
    {
      "bufferView": 1,
      "byteOffset": 352280,
      "componentType": 5126,
      "count": 3415,
      "max": [
        0.875,
        1.0010242462158203
      ],
      "min": [
        0.12415626645088196,
        0.0
      ],
      "type": "VEC2"
    },
    {
      "bufferView": 0,
      "byteOffset": 447564,
      "componentType": 5125,
      "count": 8856,
      "type": "SCALAR"
    }
  ],
  "asset": {
    "extras": {
      "author": "BiG (https://sketchfab.com/BiGZiN)",
      "license": "CC-BY-4.0 (http://creativecommons.org/licenses/by/4.0/)",
      "source": "https://sketchfab.com/3d-models/3d-modem-448fe75db1894fa3b059dbe1c7c39c39",
      "title": "3D modem"
    },
    "generator": "Sketchfab-14.21.0",
    "version": "2.0"
  },
  "bufferViews": [
    {
      "buffer": 0,
      "byteLength": 482988,
      "name": "floatBufferViews",
      "target": 34963
    },
    {
      "buffer": 0,
      "byteLength": 379600,
      "byteOffset": 482988,
      "byteStride": 8,
      "name": "floatBufferViews",
      "target": 34962
    },
    {
      "buffer": 0,
      "byteLength": 1138800,
      "byteOffset": 862588,
      "byteStride": 12,
      "name": "floatBufferViews",
      "target": 34962
    }
  ],
  "buffers": [
    {
      "byteLength": 2001388,
      "uri": "scene.bin"
    }
  ],
  "materials": [
    {
      "doubleSided": true,
      "name": "lola_anten__0",
      "pbrMetallicRoughness": {
        "metallicFactor": 0.0,
        "roughnessFactor": 0.6
      }
    },
    {
      "doubleSided": true,
      "name": "Material",
      "pbrMetallicRoughness": {
        "baseColorFactor": [
          0.8,
          0.8,
          0.8,
          1.0
        ],
        "metallicFactor": 0.0,
        "roughnessFactor": 0.8211145618000169
      }
    },
    {
      "doubleSided": true,
      "name": "Material.003",
      "pbrMetallicRoughness": {
        "baseColorFactor": [
          0.0125361,
          0.0125361,
          0.0125361,
          1.0
        ],
        "metallicFactor": 0.0,
        "roughnessFactor": 0.9971968428227265
      }
    },
    {
      "doubleSided": true,
      "name": "Material.001",
      "pbrMetallicRoughness": {
        "baseColorFactor": [
          0.33287,
          0.33287,
          0.33287,
          1.0
        ],
        "metallicFactor": 0.0,
        "roughnessFactor": 0.9255680052329645
      }
    },
    {
      "doubleSided": true,
      "name": "material",
      "pbrMetallicRoughness": {
        "baseColorFactor": [
          0.8,
          0.335003,
          0.0249298,
          1.0
        ],
        "metallicFactor": 0.0,
        "roughnessFactor": 0.8793959162529608
      }
    },
    {
      "doubleSided": true,
      "name": "lan.001",
      "pbrMetallicRoughness": {
        "baseColorFactor": [
          1.0,
          0.738758,
          0.289071,
          1.0
        ],
        "metallicFactor": 0.0,
        "roughnessFactor": 0.9052920209617025
      }
    },
    {
      "doubleSided": true,
      "name": "Material.004",
      "pbrMetallicRoughness": {
        "baseColorFactor": [
          0.8,
          0.8,
          0.8,
          1.0
        ],
        "metallicFactor": 0.0,
        "roughnessFactor": 0.7939109015181186
      }
    },
    {
      "doubleSided": true,
      "name": "Material.002",
      "pbrMetallicRoughness": {
        "baseColorFactor": [
          0.8,
          0.8,
          0.8,
          1.0
        ],
        "metallicFactor": 0.0,
        "roughnessFactor": 0.8211145618000169
      }
    }
  ],
  "meshes": [
    {
      "name": "move this_Material_0",
      "primitives": [
        {
          "attributes": {
            "NORMAL": 1,
            "POSITION": 0,
            "TEXCOORD_0": 2
          },
          "indices": 3,
          "material": 1,
          "mode": 4
        }
      ]
    },
    {
      "name": "anten_Material_0",
      "primitives": [
        {
          "attributes": {
            "NORMAL": 5,
            "POSITION": 4,
            "TEXCOORD_0": 6
          },
          "indices": 7,
          "material": 1,
          "mode": 4
        }
      ]
    },
    {
      "name": "lola anten__0",
      "primitives": [
        {
          "attributes": {
            "NORMAL": 9,
            "POSITION": 8,
            "TEXCOORD_0": 10
          },
          "indices": 11,
          "material": 0,
          "mode": 4
        }
      ]
    },
    {
      "name": "mohre anten__0",
      "primitives": [
        {
          "attributes": {
            "NORMAL": 13,
            "POSITION": 12,
            "TEXCOORD_0": 14
          },
          "indices": 15,
          "material": 0,
          "mode": 4
        }
      ]
    },
    {
      "name": "pich anten__0",
      "primitives": [
        {
          "attributes": {
            "NORMAL": 17,
            "POSITION": 16,
            "TEXCOORD_0": 18
          },
          "indices": 19,
          "material": 0,
          "mode": 4
        }
      ]
    },
    {
      "name": "vasher anten__0",
      "primitives": [
        {
          "attributes": {
            "NORMAL": 21,
            "POSITION": 20,
            "TEXCOORD_0": 22
          },
          "indices": 23,
          "material": 0,
          "mode": 4
        }
      ]
    },
    {
      "name": "mohre anten.001__0",
      "primitives": [
        {
          "attributes": {
            "NORMAL": 25,
            "POSITION": 24,
            "TEXCOORD_0": 26
          },
          "indices": 27,
          "material": 0,
          "mode": 4
        }
      ]
    },
    {
      "name": "pich anten.001__0",
      "primitives": [
        {
          "attributes": {
            "NORMAL": 29,
            "POSITION": 28,
            "TEXCOORD_0": 30
          },
          "indices": 31,
          "material": 0,
          "mode": 4
        }
      ]
    },
    {
      "name": "vasher anten.001__0",
      "primitives": [
        {
          "attributes": {
            "NORMAL": 33,
            "POSITION": 32,
            "TEXCOORD_0": 34
          },
          "indices": 35,
          "material": 0,
          "mode": 4
        }
      ]
    },
    {
      "name": "lola anten.001__0",
      "primitives": [
        {
          "attributes": {
            "NORMAL": 37,
            "POSITION": 36,
            "TEXCOORD_0": 38
          },
          "indices": 39,
          "material": 0,
          "mode": 4
        }
      ]
    },
    {
      "name": "anten.001_Material_0",
      "primitives": [
        {
          "attributes": {
            "NORMAL": 41,
            "POSITION": 40,
            "TEXCOORD_0": 42
          },
          "indices": 43,
          "material": 1,
          "mode": 4
        }
      ]
    },
    {
      "name": "badan_Material_0",
      "primitives": [
        {
          "attributes": {
            "NORMAL": 45,
            "POSITION": 44,
            "TEXCOORD_0": 46
          },
          "indices": 47,
          "material": 1,
          "mode": 4
        }
      ]
    },
    {
      "name": "badan_Material.003_0",
      "primitives": [
        {
          "attributes": {
            "NORMAL": 49,
            "POSITION": 48,
            "TEXCOORD_0": 50
          },
          "indices": 51,
          "material": 2,
          "mode": 4
        }
      ]
    },
    {
      "name": "badan_Material.001_0",
      "primitives": [
        {
          "attributes": {
            "NORMAL": 53,
            "POSITION": 52,
            "TEXCOORD_0": 54
          },
          "indices": 55,
          "material": 3,
          "mode": 4
        }
      ]
    },
    {
      "name": "off/on butt__0",
      "primitives": [
        {
          "attributes": {
            "NORMAL": 57,
            "POSITION": 56,
            "TEXCOORD_0": 58
          },
          "indices": 59,
          "material": 0,
          "mode": 4
        }
      ]
    },
    {
      "name": "lan portal_lan_0",
      "primitives": [
        {
          "attributes": {
            "NORMAL": 61,
            "POSITION": 60,
            "TEXCOORD_0": 62
          },
          "indices": 63,
          "material": 4,
          "mode": 4
        }
      ]
    },
    {
      "name": "lan portal_lan.001_0",
      "primitives": [
        {
          "attributes": {
            "NORMAL": 65,
            "POSITION": 64,
            "TEXCOORD_0": 66
          },
          "indices": 67,
          "material": 5,
          "mode": 4
        }
      ]
    },
    {
      "name": "idk_Material.004_0",
      "primitives": [
        {
          "attributes": {
            "NORMAL": 69,
            "POSITION": 68,
            "TEXCOORD_0": 70
          },
          "indices": 71,
          "material": 6,
          "mode": 4
        }
      ]
    },
    {
      "name": "Cube.017_Material.002_0",
      "primitives": [
        {
          "attributes": {
            "NORMAL": 73,
            "POSITION": 72,
            "TEXCOORD_0": 74
          },
          "indices": 75,
          "material": 7,
          "mode": 4
        }
      ]
    },
    {
      "name": "badan.001_lan.001_0",
      "primitives": [
        {
          "attributes": {
            "NORMAL": 77,
            "POSITION": 76,
            "TEXCOORD_0": 78
          },
          "indices": 79,
          "material": 5,
          "mode": 4
        }
      ]
    }
  ],
  "nodes": [
    {
      "children": [
        1
      ],
      "matrix": [
        0.10493219643831253,
        0.0,
        0.0,
        0.0,
        0.0,
        2.3299628102060883e-17,
        -0.10493219643831253,
        0.0,
        0.0,
        0.10493219643831253,
        2.3299628102060883e-17,
        0.0,
        0.0,
        0.0,
        0.0,
        1.0
      ],
      "name": "Sketchfab_model"
    },
    {
      "children": [
        2
      ],
      "matrix": [
        0.009999999776482582,
        0.0,
        0.0,
        0.0,
        0.0,
        0.0,
        0.009999999776482582,
        0.0,
        0.0,
        -0.009999999776482582,
        0.0,
        0.0,
        0.0,
        0.0,
        0.0,
        1.0
      ],
      "name": "1394c095ec9e46bd8d4a2eeaa438055c.fbx"
    },
    {
      "children": [
        3
      ],
      "name": "RootNode"
    },
    {
      "children": [
        4,
        5,
        7,
        9,
        11,
        13,
        15,
        17,
        19,
        21,
        23,
        25,
        29,
        31,
        34,
        36,
        38
      ],
      "matrix": [
        100.0,
        0.0,
        0.0,
        0.0,
        0.0,
        -1.629206793918314e-05,
        -99.99999999999868,
        0.0,
        0.0,
        99.99999999999868,
        -1.629206793918314e-05,
        0.0,
        0.0,
        65.15716552734375,
        0.0,
        1.0
      ],
      "name": "move this"
    },
    {
      "mesh": 0,
      "name": "move this_Material_0"
    },
    {
      "children": [
        6
      ],
      "matrix": [
        0.9999998807907104,
        0.0,
        0.0,
        0.0,
        0.0,
        0.9999998807907104,
        -2.646977960169688e-23,
        0.0,
        0.0,
        2.646978117941888e-23,
        0.9999999403953552,
        0.0,
        0.8454895615577698,
        0.09703469276428223,
        1.449563980102539,
        1.0
      ],
      "name": "anten"
    },
    {
      "mesh": 1,
      "name": "anten_Material_0"
    },
    {
      "children": [
        8
      ],
      "matrix": [
        3.139164601004134e-07,
        0.0,
        -0.9999999403953059,
        0.0,
        -6.310887241767785e-30,
        0.9999998807907104,
        -1.9810915003645608e-36,
        0.0,
        0.9999998807906612,
        6.310887241768096e-30,
        3.139164413895332e-07,
        0.0,
        0.734578013420105,
        0.09614118933677673,
        0.38695794343948364,
        1.0
      ],
      "name": "lola anten"
    },
    {
      "mesh": 2,
      "name": "lola anten__0"
    },
    {
      "children": [
        10
      ],
      "matrix": [
        3.545384359142836e-07,
        -4.454712166593682e-31,
        -1.1294037103652397,
        0.0,
        7.105424948828296e-15,
        1.129403829574585,
        2.2305099796413183e-21,
        0.0,
        0.68223541975018,
        -4.292151704757099e-15,
        2.1416494068833193e-07,
        0.0,
        0.5881963968276978,
        0.09749767184257507,
        0.38741379976272583,
        1.0
      ],
      "name": "mohre anten"
    },
    {
      "mesh": 3,
      "name": "mohre anten__0"
    },
    {
      "children": [
        12
      ],
      "matrix": [
        1.393714995244561e-08,
        0.0,
        -0.04439763724803706,
        0.0,
        0.0,
        0.044397637248039246,
        0.0,
        0.0,
        0.04439763724803706,
        0.0,
        1.393714995244561e-08,
        0.0,
        0.6381847858428955,
        0.0947774201631546,
        0.38590675592422485,
        1.0
      ],
      "name": "pich anten"
    },
    {
      "mesh": 4,
      "name": "pich anten__0"
    },
    {
      "children": [
        14
      ],
      "matrix": [
        2.9839847933405626e-07,
        -3.749323632442075e-31,
        -0.9505664706229695,
        0.0,
        -3.5527126486858903e-15,
        0.9505664706230164,
        -1.1152550449659658e-21,
        0.0,
        0.7823400497436138,
        2.923971627650906e-15,
        2.455894336485796e-07,
        0.0,
        0.5793566703796387,
        0.09824319183826447,
        0.38602501153945923,
        1.0
      ],
      "name": "vasher anten"
    },
    {
      "mesh": 5,
      "name": "vasher anten__0"
    },
    {
      "children": [
        16
      ],
      "matrix": [
        -3.545384359142836e-07,
        -0.0,
        -1.1294037103652397,
        -0.0,
        1.7053523375076345e-07,
        1.1294038295745719,
        -5.3533820062039764e-14,
        -0.0,
        -0.6822354197501722,
        1.0301468237803182e-07,
        2.1416494053684523e-07,
        -0.0,
        -0.5874022841453552,
        0.09749765694141388,
        0.38741379976272583,
        1.0
      ],
      "name": "mohre anten.001"
    },
    {
      "mesh": 6,
      "name": "mohre anten.001__0"
    },
    {
      "children": [
        18
      ],
      "matrix": [
        -3.3519283593723603e-09,
        -0.0,
        -0.044397637248039114,
        -0.0,
        6.703856714323563e-09,
        0.04439763724803873,
        -5.061271002302503e-16,
        -0.0,
        -0.04439763724803861,
        6.703856714323582e-09,
        3.3519283544432324e-09,
        -0.0,
        -0.637390673160553,
        0.09477744996547699,
        0.38590675592422485,
        1.0
      ],
      "name": "pich anten.001"
    },
    {
      "mesh": 7,
      "name": "pich anten.001__0"
    },
    {
      "children": [
        20
      ],
      "matrix": [
        -2.9839847933405626e-07,
        -0.0,
        -0.9505664706229694,
        -0.0,
        1.4353155282737692e-07,
        0.9505665302276501,
        -4.505691963641826e-14,
        -0.0,
        -0.7823400497436048,
        1.1813006097728441e-07,
        2.455894334748652e-07,
        -0.0,
        -0.5785624980926514,
        0.09824320673942566,
        0.38602501153945923,
        1.0
      ],
      "name": "vasher anten.001"
    },
    {
      "mesh": 8,
      "name": "vasher anten.001__0"
    },
    {
      "children": [
        22
      ],
      "matrix": [
        -7.54978950986833e-08,
        -0.0,
        -0.9999999403953522,
        -0.0,
        1.5099579009778568e-07,
        0.9999999403953437,
        -1.1399864980091403e-14,
        -0.0,
        -0.9999999403953409,
        1.509957900977861e-07,
        7.5497894987661e-08,
        -0.0,
        -0.7337841987609863,
        0.09614115953445435,
        0.38695794343948364,
        1.0
      ],
      "name": "lola anten.001"
    },
    {
      "mesh": 9,
      "name": "lola anten.001__0"
    },
    {
      "children": [
        24
      ],
      "matrix": [
        -0.9999998807907104,
        -0.0,
        -0.0,
        -0.0,
        -0.0,
        0.9999998807906993,
        1.5099578109773515e-07,
        -0.0,
        -0.0,
        -1.5099579009778613e-07,
        0.9999999403953441,
        -0.0,
        -0.8402060270309448,
        0.09703469276428223,
        1.4588489532470703,
        1.0
      ],
      "name": "anten.001"
    },
    {
      "mesh": 10,
      "name": "anten.001_Material_0"
    },
    {
      "children": [
        26,
        27,
        28
      ],
      "matrix": [
        1.0,
        0.0,
        0.0,
        0.0,
        0.0,
        1.0,
        -2.646977960169688e-23,
        0.0,
        0.0,
        2.646977960169688e-23,
        1.0,
        0.0,
        0.0,
        0.0,
        0.0,
        1.0
      ],
      "name": "badan"
    },
    {
      "mesh": 11,
      "name": "badan_Material_0"
    },
    {
      "mesh": 12,
      "name": "badan_Material.003_0"
    },
    {
      "mesh": 13,
      "name": "badan_Material.001_0"
    },
    {
      "children": [
        30
      ],
      "matrix": [
        1.0273969173431396,
        0.0,
        0.0,
        0.0,
        0.0,
        -1.6738422320027602e-07,
        1.0273970365524157,
        0.0,
        0.0,
        -1.0273970365524157,
        -1.6738422320027602e-07,
        0.0,
        -0.45460814237594604,
        0.10285041481256485,
        -0.41968074440956116,
        1.0
      ],
      "name": "off/on butt"
    },
    {
      "mesh": 14,
      "name": "off/on butt__0"
    },
    {
      "children": [
        32,
        33
      ],
      "matrix": [
        1.0,
        0.0,
        0.0,
        0.0,
        0.0,
        1.0,
        -2.646977960169688e-23,
        0.0,
        0.0,
        2.646977960169688e-23,
        1.0,
        0.0,
        0.0,
        0.0,
        0.0,
        1.0
      ],
      "name": "lan portal"
    },
    {
      "mesh": 15,
      "name": "lan portal_lan_0"
    },
    {
      "mesh": 16,
      "name": "lan portal_lan.001_0"
    },
    {
      "children": [
        35
      ],
      "matrix": [
        0.008835671469569206,
        0.0,
        0.0,
        0.0,
        0.0,
        -1.4395137504369431e-09,
        0.008835672400891665,
        0.0,
        0.0,
        -0.00883567146956909,
        -1.4395135987052366e-09,
        0.0,
        -0.4542233943939209,
        0.0655665248632431,
        -0.5194642543792725,
        1.0
      ],
      "name": "idk"
    },
    {
      "mesh": 17,
      "name": "idk_Material.004_0"
    },
    {
      "children": [
        37
      ],
      "matrix": [
        0.8872376667932502,
        0.461312479144,
        0.0,
        0.0,
        -0.461312479144,
        0.8872376667932502,
        0.0,
        0.0,
        0.0,
        0.0,
        1.0,
        0.0,
        -0.1123451367020607,
        0.0938141942024231,
        -0.03331899642944336,
        1.0
      ],
      "name": "Cube.017"
    },
    {
      "mesh": 18,
      "name": "Cube.017_Material.002_0"
    },
    {
      "children": [
        39
      ],
      "matrix": [
        1.0,
        0.0,
        0.0,
        0.0,
        0.0,
        1.0,
        -2.646977960169688e-23,
        0.0,
        0.0,
        2.646977960169688e-23,
        1.0,
        0.0,
        0.0,
        0.0,
        0.0,
        1.0
      ],
      "name": "badan.001"
    },
    {
      "mesh": 19,
      "name": "badan.001_lan.001_0"
    }
  ],
  "scene": 0,
  "scenes": [
    {
      "name": "Sketchfab_Scene",
      "nodes": [
        0
      ]
    }
  ]
}
